<svg width="7" height="10" viewBox="0 0 7 10" fill="#656a85" xmlns="http://www.w3.org/2000/svg">
<path d="M2.12021 4.99799L5.91035 8.58948C6.01471 8.68813 6.07212 8.82004 6.07212 8.96068C6.07212 9.1014 6.01471 9.23323 5.91035 9.33204L5.57823 9.64657C5.47404 9.74554 5.33475 9.80002 5.18632 9.80002C5.03789 9.80002 4.89877 9.74554 4.79449 9.64657L0.281727 5.37059C0.177036 5.27147 0.119707 5.13902 0.120119 4.99822C0.119707 4.8568 0.176954 4.72451 0.281727 4.62531L4.79029 0.353462C4.89457 0.254496 5.03369 0.200017 5.1822 0.200017C5.33063 0.200017 5.46975 0.254496 5.57411 0.353462L5.90615 0.667999C6.1222 0.87272 6.1222 1.20599 5.90615 1.41063L2.12021 4.99799Z" fill="#656a85" />
</svg>
