<svg width="8" height="9" viewBox="0 0 8 9" fill="none" xmlns="http://www.w3.org/2000/svg">
<path d="M3.29249 4.50007L0.146589 1.35405C-0.0488625 1.15876 -0.0488625 0.841886 0.146589 0.646594C0.342041 0.451135 0.658565 0.451135 0.854016 0.646594L3.99992 3.79262L7.14598 0.646594C7.34144 0.451135 7.65796 0.451135 7.85341 0.646594C8.04886 0.841886 8.04886 1.15876 7.85341 1.35405L4.70734 4.50007L7.85341 7.64609C8.04886 7.84138 8.04886 8.15826 7.85341 8.35355C7.75569 8.45111 7.62761 8.49998 7.4997 8.49998C7.37179 8.49998 7.24371 8.45111 7.14598 8.35338L3.99992 5.20736L0.854016 8.35338C0.75629 8.45111 0.628213 8.49998 0.500302 8.49998C0.372392 8.49998 0.244315 8.45111 0.146589 8.35338C-0.0488625 8.15809 -0.0488625 7.84122 0.146589 7.64593L3.29249 4.50007Z" fill="#2B3851"/>
</svg>
