<svg width="12" height="8" viewBox="0 0 12 8" fill="none" xmlns="http://www.w3.org/2000/svg">
<path d="M5.99746 5.09992L10.4868 0.362248C10.6101 0.231796 10.775 0.160031 10.9508 0.160031C11.1267 0.160031 11.2915 0.231796 11.415 0.362248L11.8082 0.777388C11.9319 0.907635 12 1.08174 12 1.26728C12 1.45282 11.9319 1.62672 11.8082 1.75707L6.46322 7.39802C6.33932 7.52889 6.17376 7.60055 5.99776 7.60003C5.82098 7.60055 5.65561 7.52899 5.53161 7.39802L0.191805 1.76232C0.0680982 1.63197 1.48253e-07 1.45807 1.23909e-07 1.27243C9.9579e-08 1.08689 0.0680981 0.912991 0.191805 0.782538L0.584976 0.3675C0.840878 0.0974317 1.25746 0.0974316 1.51327 0.3675L5.99746 5.09992Z" fill="#B6BED0"/>
</svg>