<svg width="14" height="14" viewBox="0 0 14 14" fill="none" xmlns="http://www.w3.org/2000/svg">
<path d="M7 0C3.14025 0 0 3.14025 0 7C0 10.8597 3.14025 14 7 14C8.2309 14 9.44128 13.6761 10.5009 13.0631L9.625 11.548C8.83119 12.0073 7.92327 12.25 7 12.25C4.10499 12.25 1.74999 9.89501 1.74999 7C1.74999 4.10499 4.10499 1.74999 7 1.74999C9.89501 1.74999 12.25 4.10499 12.25 7V7.7622C12.25 8.33472 11.8822 8.74999 11.375 8.74999C10.8926 8.74999 10.5 8.35735 10.5 7.87498V4.375H9.29042C8.67487 3.83724 7.87961 3.49999 7 3.49999C5.07013 3.49999 3.49999 5.07013 3.49999 7C3.49999 8.92988 5.07013 10.5 7 10.5C7.91901 10.5 8.7499 10.1366 9.37507 9.55517C9.85696 10.1278 10.5697 10.5 11.375 10.5C12.8469 10.5 14 9.29733 14 7.7622V7C14 3.14025 10.8597 0 7 0ZM7 8.74999C6.03484 8.74999 5.25001 7.96513 5.25001 7C5.25001 6.03484 6.03487 5.25001 7 5.25001C7.96516 5.25001 8.74999 6.03487 8.74999 7C8.74999 7.96516 7.96516 8.74999 7 8.74999Z" fill="#B6BED0"/>
</svg>
