<svg xmlns="http://www.w3.org/2000/svg" width="20" fill="currentColor" viewBox="0 0 25 25">
  <defs/>
  <path d="M4.9 3.43A1.05 1.05 0 003.44 4.9l5.86 5.86a3.65 3.65 0 004.94 4.94l5.86 5.86a1.04 1.04 0 001.71-.34 1.04 1.04 0 00-.23-1.14L4.91 3.43zm7.6 10.63a1.56 1.56 0 01-1.56-1.56v-.07l1.62 1.62-.06.01z"/>
  <path d="M12.73 17.7c-4.48.11-7.42-3.73-8.33-5.2.65-1.04 1.43-2 2.33-2.83L5.2 8.2a16.55 16.55 0 00-3 3.78 1.04 1.04 0 000 1.04c.66 1.14 4.18 6.77 10.31 6.77h.26a9.87 9.87 0 003.37-.7l-1.65-1.64c-.58.15-1.17.24-1.77.26zM22.78 11.98c-.67-1.16-4.34-6.96-10.56-6.77-1.15.03-2.3.27-3.37.7l1.65 1.64a8.06 8.06 0 011.77-.26c4.47-.11 7.4 3.74 8.33 5.21-.66 1.04-1.47 2-2.38 2.83l1.57 1.47c1.2-1.1 2.21-2.38 3.03-3.78a1.04 1.04 0 00-.04-1.04z"/>
</svg>
