<svg xmlns="http://www.w3.org/2000/svg" width="20" fill="currentColor" viewBox="0 0 25 25">
  <defs/>
  <path d="M22.78 11.98c-.67-1.16-4.33-6.96-10.56-6.77-5.76.14-9.1 5.2-10 6.77a1.04 1.04 0 000 1.04c.65 1.14 4.17 6.77 10.3 6.77h.26c5.76-.14 9.1-5.2 10-6.77a1.04 1.04 0 000-1.04zM12.73 17.7c-4.5.1-7.42-3.74-8.33-5.21 1.04-1.68 3.76-5.1 7.92-5.2 4.47-.12 7.4 3.73 8.34 5.2-1.08 1.68-3.76 5.1-7.93 5.2z"/>
  <path d="M12.5 8.85a3.65 3.65 0 100 7.3 3.65 3.65 0 000-7.3zm0 5.21a1.56 1.56 0 110-3.12 1.56 1.56 0 010 3.12z"/>
</svg>
