<?xml version="1.0" standalone="no"?>
<!DOCTYPE svg PUBLIC "-//W3C//DTD SVG 20010904//EN"
 "http://www.w3.org/TR/2001/REC-SVG-20010904/DTD/svg10.dtd">
<svg version="1.0" xmlns="http://www.w3.org/2000/svg"
 width="200.000000pt" height="200.000000pt" viewBox="0 0 200.000000 200.000000"
 preserveAspectRatio="xMidYMid meet">

<g transform="translate(0.000000,200.000000) scale(0.100000,-0.100000)"
fill="#000000" stroke="none">
<path d="M856 1851 l-148 -148 33 -25 c19 -13 58 -41 88 -62 l54 -38 58 58 59
59 209 -209 208 -208 62 88 c33 48 61 90 61 93 0 4 -120 126 -268 274 l-267
267 -149 -149z"/>
<path d="M1865 1924 c-33 -6 -94 -24 -135 -39 -81 -30 -316 -145 -350 -173
-21 -17 -21 -17 28 -65 l49 -48 99 50 c54 28 111 53 126 57 l28 6 -14 -39
c-39 -111 -156 -302 -280 -457 -46 -57 -54 -72 -44 -85 22 -29 82 -91 88 -91
9 0 156 197 218 292 60 94 149 265 190 368 31 80 67 212 61 228 -3 5 -28 4
-64 -4z"/>
<path d="M70 1911 c0 -70 97 -311 197 -490 l35 -63 53 52 53 53 -25 40 c-25
40 -74 144 -87 185 -11 32 7 28 113 -23 132 -64 248 -142 417 -279 l30 -24 55
49 54 49 -40 36 c-66 59 -322 227 -445 292 -120 63 -331 142 -381 142 -22 0
-29 -5 -29 -19z"/>
<path d="M275 1270 l-270 -270 146 -146 146 -146 62 87 62 87 -55 62 -55 63
205 204 c112 112 204 206 204 209 0 6 -147 110 -164 116 -6 2 -132 -117 -281
-266z"/>
<path d="M1028 1459 c-105 -87 -328 -299 -328 -311 0 -5 21 -34 46 -63 l45
-54 102 101 c93 92 198 188 286 261 l34 28 -49 50 c-26 27 -52 49 -56 49 -4 0
-40 -27 -80 -61z"/>
<path d="M1086 1260 l-57 -54 124 -125 c104 -106 148 -155 259 -286 8 -9 108
81 108 97 0 9 -181 215 -292 333 l-85 89 -57 -54z"/>
<path d="M1649 1224 c-30 -43 -58 -84 -63 -92 -6 -10 8 -30 48 -71 l56 -56
-205 -205 c-113 -113 -203 -209 -202 -214 2 -5 40 -36 86 -69 l82 -60 275 274
274 274 -148 148 -149 148 -54 -77z"/>
<path d="M525 1160 c-44 -45 -47 -51 -34 -67 110 -132 330 -371 356 -386 9 -6
31 7 69 39 l55 47 -108 111 c-60 61 -147 155 -193 208 -47 54 -87 98 -90 98
-3 0 -28 -22 -55 -50z"/>
<path d="M458 867 c-203 -271 -361 -582 -385 -755 l-6 -43 39 7 c115 20 306
98 462 186 l73 42 -51 51 -51 52 -105 -54 c-57 -29 -113 -53 -124 -53 -18 0
-18 2 -5 41 39 110 174 325 293 467 l44 52 -49 55 c-26 30 -50 55 -53 55 -3 0
-39 -46 -82 -103z"/>
<path d="M1175 939 c-40 -42 -266 -252 -335 -311 l-55 -47 52 -52 52 -52 87
74 c111 94 324 298 324 311 0 5 -21 32 -48 59 l-47 50 -30 -32z"/>
<path d="M516 638 c-31 -46 -56 -88 -56 -93 0 -6 121 -131 268 -277 l268 -267
149 149 c82 82 147 151 145 153 -17 15 -154 109 -165 113 -7 3 -39 -20 -72
-50 l-58 -56 -201 205 c-110 113 -205 205 -211 205 -5 0 -35 -37 -67 -82z"/>
<path d="M1086 593 l-56 -48 22 -18 c88 -71 231 -174 310 -223 174 -108 405
-207 532 -230 l39 -7 -7 42 c-18 113 -130 381 -210 503 -16 25 -20 26 -39 13
-12 -8 -35 -31 -51 -51 l-29 -37 36 -66 c19 -36 45 -90 56 -118 20 -52 20 -53
2 -53 -56 0 -332 165 -476 285 -27 23 -55 44 -61 48 -7 4 -37 -14 -68 -40z"/>
</g>
</svg>
