<svg xmlns="http://www.w3.org/2000/svg" fill="none" viewBox="0 0 15 15">
  <defs/>
  <mask id="a" fill="currentColor">
    <path d="M11.48 1.84a7.22 7.22 0 013.03 3.5c.58 1.45.65 3.03.2 4.52a7.13 7.13 0 01-2.72 3.72 7.77 7.77 0 01-9.04-.04A7.12 7.12 0 01.28 9.79a6.79 6.79 0 01.24-4.52A7.23 7.23 0 013.58 1.8l1.09 1.68A5.22 5.22 0 002.45 6a4.9 4.9 0 00-.17 3.27c.32 1.08 1 2.03 1.93 2.7a5.6 5.6 0 006.53.04 5.16 5.16 0 001.97-2.69 4.9 4.9 0 00-.14-3.27 5.22 5.22 0 00-2.19-2.53l1.1-1.67z"/>
  </mask>
  <path stroke="currentColor" stroke-linejoin="round" stroke-width="6" d="M11.48 1.84a7.22 7.22 0 013.03 3.5c.58 1.45.65 3.03.2 4.52a7.13 7.13 0 01-2.72 3.72 7.77 7.77 0 01-9.04-.04A7.12 7.12 0 01.28 9.79a6.79 6.79 0 01.24-4.52A7.23 7.23 0 013.58 1.8l1.09 1.68A5.22 5.22 0 002.45 6a4.9 4.9 0 00-.17 3.27c.32 1.08 1 2.03 1.93 2.7a5.6 5.6 0 006.53.04 5.16 5.16 0 001.97-2.69 4.9 4.9 0 00-.14-3.27 5.22 5.22 0 00-2.19-2.53l1.1-1.67z" mask="url(#a)"/>
  <rect width="2.37" height="6" x="6.32" fill="currentColor" rx=".6"/>
</svg>
