<svg width="12" height="13" viewBox="0 0 12 13" fill="none" xmlns="http://www.w3.org/2000/svg">
<path d="M10.4111 5.05699L10.354 5.03664L10.1311 4.50448L10.1553 4.4498C10.8306 2.9181 10.7841 2.87241 10.6721 2.76136L9.7712 1.88253C9.73436 1.84599 9.66969 1.82029 9.61394 1.82029C9.56325 1.82029 9.40973 1.82029 8.07922 2.4229L8.02587 2.44685L7.47694 2.22579L7.45491 2.17115C6.82923 0.621887 6.76514 0.621887 6.60944 0.621887H5.33721C5.1821 0.621887 5.11145 0.621887 4.53127 2.17384L4.50943 2.23034L3.96335 2.45295L3.91114 2.43124C3.01057 2.05157 2.48474 1.85904 2.34767 1.85904C2.29205 1.85904 2.22715 1.88399 2.19016 1.92043L1.28845 2.80179C1.17406 2.91462 1.12662 2.96187 1.83735 4.46161L1.86347 4.51723L1.64018 5.04881L1.58554 5.06993C0 5.68267 0 5.74241 0 5.902V7.14869C0 7.30871 0 7.37516 1.58868 7.94451L1.64547 7.96457L1.8688 8.49458L1.84482 8.54874C1.16945 10.0812 1.21229 10.1226 1.32726 10.237L2.22676 11.117C2.26447 11.1533 2.32973 11.1792 2.38538 11.1792C2.43574 11.1792 2.58891 11.1792 3.92029 10.5768L3.97361 10.5519L4.5229 10.774L4.54425 10.829C5.17032 12.3777 5.23464 12.3777 5.39043 12.3777H6.66305C6.82283 12.3777 6.8891 12.3777 7.46974 10.8247L7.49138 10.7682L8.03834 10.5471L8.09039 10.5683C8.99021 10.9491 9.51578 11.1412 9.65197 11.1412C9.70711 11.1412 9.77259 11.117 9.8102 11.0798L10.7134 10.1965C10.827 10.0831 10.8743 10.0367 10.1623 8.53839L10.1358 8.48212L10.3587 7.95285L10.412 7.93198C12 7.31604 12 7.25601 12 7.09622V5.85028C12 5.69029 12 5.62422 10.4111 5.05699ZM5.99998 8.52171C4.86298 8.52171 3.93801 7.61442 3.93801 6.50003C3.93801 5.38561 4.86301 4.47953 5.99998 4.47953C7.1365 4.47953 8.06131 5.38581 8.06131 6.50003C8.06134 7.61423 7.13653 8.52171 5.99998 8.52171Z" fill="#637392"/>
</svg>
