<svg width="12" height="15" viewBox="0 0 12 15" fill="none" xmlns="http://www.w3.org/2000/svg">
<path d="M10.8216 1.94836H8.47418C8.33333 0.84507 7.44131 0 6.26761 0H5.53991C4.3662 0 3.4507 0.84507 3.33333 1.94836H0.915493C0.399061 1.94836 0 2.34742 0 2.86385L0.586854 12.6526C0.657277 13.9671 1.76056 15 3.07512 15H8.61502C9.92958 15 11.0329 14.0141 11.1502 12.6526L11.7371 2.86385C11.7371 2.34742 11.338 1.94836 10.8216 1.94836ZM5.53991 1.29108H6.26761C6.66667 1.29108 6.9953 1.5493 7.11268 1.94836H4.62441C4.76526 1.5493 5.0939 1.29108 5.53991 1.29108ZM9.83568 12.5822C9.76526 13.2394 9.24883 13.6854 8.59155 13.6854H3.07512C2.41784 13.6854 1.90141 13.2394 1.90141 12.5822L1.38498 3.26291H10.446L9.83568 12.5822Z" fill="white"/>
</svg>
