<svg width="10" height="7" viewBox="0 0 10 7" fill="none" xmlns="http://www.w3.org/2000/svg">
<path d="M5.00212 2.08343L1.26098 6.03149C1.15822 6.1402 1.02082 6.2 0.874314 6.2C0.727729 6.2 0.590412 6.1402 0.487485 6.03149L0.159842 5.68554C0.0567528 5.577 4.68395e-06 5.43191 4.55063e-06 5.2773C4.4173e-06 5.12268 0.0567523 4.97776 0.159842 4.86914L4.61398 0.168344C4.71724 0.0592909 4.8552 -0.000426819 5.00187 2.18444e-06C5.14919 -0.000426825 5.28699 0.0592051 5.39033 0.168344L9.84017 4.86476C9.94326 4.97339 10 5.11831 10 5.27301C10 5.42762 9.94326 5.57254 9.84017 5.68125L9.51253 6.02711C9.29927 6.25217 8.95212 6.25217 8.73895 6.02711L5.00212 2.08343Z" fill="#8287A6"/>
</svg>
