<svg width="16" height="16" viewBox="0 0 16 16" fill="none" xmlns="http://www.w3.org/2000/svg">
<path fill-rule="evenodd" clip-rule="evenodd" d="M13.1487 14.1232C14.8922 12.6557 16 10.4572 16 8C16 3.58172 12.4183 0 8 0C3.58172 0 0 3.58172 0 8C0 10.4479 1.09942 12.639 2.83142 14.1064C2.9051 14.0569 2.98245 14.011 3.06449 13.9704L5.54315 12.7436C5.86822 12.5826 6.07073 12.2734 6.07104 11.9378V11.0161C6.07104 11.0161 5.34378 10.2265 5.06604 9.12938C4.83563 8.99426 4.68171 8.76044 4.68171 8.49477V7.4861C4.68171 7.26423 4.79018 7.06597 4.95945 6.92716V5.46906C4.95945 5.46906 4.62936 3.2 8.01585 3.2C11.4023 3.2 11.0722 5.46906 11.0722 5.46906V6.92716C11.2412 7.06597 11.35 7.26423 11.35 7.4861V8.49477C11.35 8.83383 11.0992 9.11914 10.7588 9.21443C10.5691 9.74948 10.2955 10.2595 9.9337 10.7232C9.84248 10.8401 9.75721 10.9391 9.68261 11.0161V11.9611C9.68261 12.309 9.89922 12.627 10.2422 12.7826L12.8964 13.9867C12.9851 14.0267 13.0689 14.0728 13.1487 14.1232ZM8.00751 16C7.92962 15.9999 7.85198 15.9989 7.7746 15.9969C7.84948 15.999 7.92462 16 8 16C8.0025 16 8.00501 16 8.00751 16Z" fill="#637392"/>
</svg>